<svg width="114" height="135" viewBox="0 0 114 135" fill="none" xmlns="http://www.w3.org/2000/svg">
<path d="M92.9445 77.8C88.5445 90.8 76.2444 100.2 61.7444 100.2C43.0444 100.2 28.0444 84.7 28.7444 65.9C29.4444 49 43.0445 35.1 59.9445 34.3C75.2445 33.5 88.3445 43.1 92.9445 56.6L109.544 40C115.044 34.5 115.044 25.6 109.644 20.1C97.4445 7.70001 80.4445 0 61.6445 0C35.5445 0 12.9444 14.9 1.74445 36.6C-1.45555 42.9 -0.155549 50.6 4.84445 55.6C11.2445 62 11.2445 72.5 4.84445 78.9C-0.155549 83.9 -1.45555 91.6 1.74445 97.9C12.9444 119.6 35.5445 134.5 61.6445 134.5C80.4445 134.5 97.4445 126.8 109.644 114.4C115.144 108.9 115.044 100 109.544 94.5L92.9445 77.8Z" fill="url(#paint0_linear_246_11)"/>
<path opacity="0.48" d="M101.844 86.7L92.9438 77.8C88.5438 90.8 76.2437 100.2 61.7437 100.2C43.0437 100.2 28.0437 84.7 28.7437 65.9C29.4437 49 43.0438 35.1 59.9438 34.3C75.2438 33.5 88.3438 43.1 92.9438 56.6L101.844 47.7C94.6438 32.8 79.2437 22.5 61.5437 22.5C36.8437 22.5 16.8438 42.5 16.8438 67.2C16.8438 91.9 36.8437 111.9 61.5437 111.9C79.3437 111.8 94.6438 101.6 101.844 86.7Z" fill="url(#paint1_linear_246_11)"/>
<path opacity="0.48" d="M61.6453 22.4C79.3453 22.4 94.6453 32.7 101.945 47.6C94.7453 32.1 79.3453 20.6 61.6453 20.6C37.4453 20.6 17.6453 40.7 16.9453 65.7C17.6453 41.7 37.3453 22.4 61.6453 22.4Z" fill="url(#paint2_linear_246_11)"/>
<path opacity="0.48" d="M61.6453 111.8C36.9453 111.8 16.9453 91.8 16.9453 67.1C16.9453 92.8 36.9453 113.6 61.6453 113.6C79.3453 113.6 94.6453 102.1 101.845 86.6C94.6453 101.6 79.3453 111.8 61.6453 111.8Z" fill="url(#paint3_linear_246_11)"/>
<path opacity="0.48" d="M61.5453 23.4C74.2453 23.4 85.7453 28.3 94.0453 36.3C85.9453 27.7 74.3453 22.4 61.6453 22.4C49.2453 22.4 38.0453 27.4 29.9453 35.6C38.1453 28 49.3453 23.4 61.5453 23.4Z" fill="url(#paint4_linear_246_11)"/>
<path opacity="0.48" d="M61.5461 110.9C49.9461 110.9 39.3461 106.8 31.2461 100C39.2461 107.4 49.8461 111.9 61.5461 111.9C73.6461 111.9 84.7461 107.1 92.7461 99.2C84.6461 106.4 73.6461 110.9 61.5461 110.9Z" fill="url(#paint5_linear_246_11)"/>
<defs>
<linearGradient id="paint0_linear_246_11" x1="117.502" y1="67.1562" x2="-0.25935" y2="67.1562" gradientUnits="userSpaceOnUse">
<stop stop-color="#3FEAE9"/>
<stop offset="1" stop-color="#7E64DE"/>
</linearGradient>
<linearGradient id="paint1_linear_246_11" x1="97.7223" y1="67.1012" x2="18.7374" y2="67.1012" gradientUnits="userSpaceOnUse">
<stop stop-color="#2E5CCE"/>
<stop offset="1" stop-color="#2E5CCE" stop-opacity="0"/>
</linearGradient>
<linearGradient id="paint2_linear_246_11" x1="90.5268" y1="43.1816" x2="40.38" y2="43.1816" gradientUnits="userSpaceOnUse">
<stop stop-color="white"/>
<stop offset="1" stop-color="white" stop-opacity="0"/>
</linearGradient>
<linearGradient id="paint3_linear_246_11" x1="90.5268" y1="90.401" x2="40.38" y2="90.401" gradientUnits="userSpaceOnUse">
<stop stop-color="white"/>
<stop offset="1" stop-color="white" stop-opacity="0"/>
</linearGradient>
<linearGradient id="paint4_linear_246_11" x1="90.932" y1="29.347" x2="31.3233" y2="29.347" gradientUnits="userSpaceOnUse">
<stop stop-color="#2E5CCE"/>
<stop offset="1" stop-color="#2E5CCE" stop-opacity="0"/>
</linearGradient>
<linearGradient id="paint5_linear_246_11" x1="89.8367" y1="105.476" x2="32.6401" y2="105.476" gradientUnits="userSpaceOnUse">
<stop stop-color="#2E5CCE"/>
<stop offset="1" stop-color="#2E5CCE" stop-opacity="0"/>
</linearGradient>
</defs>
</svg>
